<?xml version="1.0" encoding="UTF-8" standalone="no"?>
<!DOCTYPE svg PUBLIC "-//W3C//DTD SVG 1.1//EN" "http://www.w3.org/Graphics/SVG/1.1/DTD/svg11.dtd">
<svg width="100%" height="100%" viewBox="0 0 223 279" version="1.1" xmlns="http://www.w3.org/2000/svg" xmlns:xlink="http://www.w3.org/1999/xlink" xml:space="preserve" xmlns:serif="http://www.serif.com/" style="fill-rule:evenodd;clip-rule:evenodd;stroke-linejoin:round;stroke-miterlimit:2;">
    <g transform="matrix(1,0,0,1,-52,0)">
        <path d="M122.838,267.267C134.271,271.869 146.676,274.6 159.7,275.054C177.327,275.67 194.088,272.026 209.073,265.103C191.104,258.043 174.83,247.719 160.941,234.883C151.937,249.298 138.621,260.684 122.838,267.267Z" style="fill:rgb(255,145,0);fill-rule:nonzero;"/>
        <path d="M160.938,234.887C129.233,205.564 110,163.124 111.625,116.574C111.678,115.062 111.758,113.551 111.851,112.041C106.173,110.572 100.245,109.676 94.144,109.463C85.412,109.158 76.956,110.241 68.972,112.49C60.508,127.315 55.401,144.325 54.765,162.546C53.123,209.568 81.579,250.655 122.835,267.271C138.619,260.688 151.934,249.315 160.938,234.887Z" style="fill:rgb(255,196,0);fill-rule:nonzero;"/>
        <path d="M160.94,234.886C168.311,223.089 172.78,209.259 173.3,194.359C174.669,155.165 148.32,121.448 111.853,112.04C111.759,113.55 111.68,115.061 111.627,116.572C110.001,163.122 129.235,205.563 160.94,234.886Z" style="fill:rgb(255,145,0);fill-rule:nonzero;"/>
        <path d="M169.222,1.867C148.452,18.506 132.051,40.447 122.128,65.721C116.447,80.198 112.877,95.748 111.835,112.049C148.303,121.458 174.652,155.174 173.283,194.368C172.763,209.269 168.28,223.085 160.922,234.895C174.811,247.745 191.085,258.056 209.055,265.116C245.122,248.443 270.712,212.568 272.194,170.134C273.154,142.641 262.591,118.138 247.665,97.455C231.903,75.581 169.222,1.867 169.222,1.867Z" style="fill:rgb(221,44,0);fill-rule:nonzero;"/>
    </g>
</svg>
